<?xml version="1.0" encoding="utf-8"?>
<!-- Generator: Adobe Illustrator 26.0.3, SVG Export Plug-In . SVG Version: 6.00 Build 0)  -->
<svg version="1.1" id="레이어_1" xmlns="http://www.w3.org/2000/svg" xmlns:xlink="http://www.w3.org/1999/xlink" x="0px"
	 y="0px" viewBox="0 0 471.7 152.2" style="enable-background:new 0 0 471.7 152.2;" xml:space="preserve">
<style type="text/css">
	.st0{fill:#2FB9ED;stroke:#2FB9ED;stroke-width:3.6477;stroke-miterlimit:10;}
</style>
<g>
	<g>
		<path d="M0,40.8h80.5v29H0V40.8z M68.4,148.5c-5.5,0.5-10.1,0.6-13.9,0.5c-5.5-0.4-11.1-2.3-16.6-5.7c-5.5-3.4-10.1-8-13.6-13.7
			c-3.6-5.7-5.3-12-5.3-18.8V0h31.2v110.7c0,2.4,0.6,4.1,1.7,5.2c1.1,1.1,2.7,1.7,4.6,1.9c2.4,0.1,5.4,0,9.2-0.3
			c3.7-0.3,6.7-0.7,8.8-1.1l6.7,30.4C78.1,147.5,73.8,148,68.4,148.5z"/>
		<path d="M186.9,88.5c0.9,6.8,1.3,13.3,1.2,19.6h-76.2c2.2,4.7,5.4,8.5,9.6,11.1c4.1,2.7,9.4,4,15.7,4c5.1,0,9.3-0.9,12.5-2.6
			c3.2-1.7,5.4-3.8,6.4-6.3l26.4,11.1c-3.3,6.7-8.8,12.4-16.6,17c-7.8,4.6-17.4,6.9-29,6.9c-10.7,0-20-2.4-27.9-7.2
			c-8-4.8-14-11.3-18.2-19.5c-4.1-8.2-6.2-17.2-6.2-26.9c0-9.9,2.1-18.9,6.2-27.1c4.1-8.2,10.2-14.8,18.2-19.6
			c8-4.9,17.3-7.3,27.9-7.3c10,0,18.4,2.1,25.1,6.2c6.7,4.1,11.6,8.5,14.7,12.9c3.1,4.5,5,7.8,5.6,9.9
			C184.4,75.8,186,81.7,186.9,88.5z M156.3,75.5c-2.2-2.7-5-4.7-8.4-6c-3.4-1.3-7-2-11-2c-6.3,0-11.8,1.5-16.5,4.6
			c-4.7,3.1-7.5,7.6-8.6,13.5h48.7C160,81.6,158.5,78.2,156.3,75.5z"/>
		<path d="M328.2,40.8h80.5v29h-80.5V40.8z M396.6,148.5c-5.5,0.5-10.1,0.6-13.9,0.5c-5.5-0.4-11.1-2.3-16.6-5.7
			c-5.5-3.4-10.1-8-13.6-13.7c-3.6-5.7-5.3-12-5.3-18.8V0h31.2v110.7c0,2.4,0.6,4.1,1.7,5.2c1.1,1.1,2.7,1.7,4.6,1.9
			c2.4,0.1,5.4,0,9.2-0.3c3.7-0.3,6.7-0.7,8.8-1.1l6.7,30.4C406.3,147.5,402.1,148,396.6,148.5z"/>
	</g>
	<g>
		<path d="M445.1,118.5c2.8,3,4.1,6.7,4.1,11.1c0,4.5-1.4,8.2-4.1,11.1c-2.8,3-6.6,4.4-11.4,4.4c-4.9,0-8.7-1.5-11.4-4.4
			c-2.8-3-4.1-6.7-4.1-11.1c0-4.5,1.4-8.2,4.1-11.1c2.8-3,6.6-4.4,11.4-4.4C438.5,114,442.4,115.5,445.1,118.5z"/>
	</g>
	<g>
		<path class="st0" d="M462,69.8c2.5,0.6,4.3,1.9,5.6,3.9c1.3,2.1,1.7,4.3,1.2,6.6c-0.5,2.4-1.8,4.3-4,5.7
			c-65.9,41.3-117.8,62-155.8,62c-14.6,0-27-2.9-37.3-8.8c-14.4-8.1-24.9-21.3-31.6-39.7c-7.6,7.9-13.9,15-18.9,21.1
			c-5,6.2-8.3,10.8-10.1,13.8c-1.7,3-2.7,5.1-2.8,6.4c0,2.5-0.9,4.7-2.6,6.4c-1.7,1.7-3.9,2.6-6.4,2.6c-2.5,0-4.7-0.9-6.4-2.6
			c-1.7-1.7-2.6-3.9-2.6-6.4c0-11.1,13.9-30.6,41.8-58.7l2.6-2.6c-2.4-13.9-3.5-27.5-3.3-40.8c0-2.5,0.9-4.7,2.6-6.4
			c1.7-1.7,3.9-2.6,6.4-2.6s4.6,0.9,6.3,2.6c1.7,1.7,2.5,3.9,2.5,6.4c0,8.5,0.5,17.1,1.4,25.6c16.8-15.7,30.4-27.2,40.8-34.4
			c2.8-2.1,5.8-2.3,8.8-0.7c3.2,1.6,4.9,4,5.2,7.4c0.3,3.2-1,5.9-4,8.1c-10.9,7.6-26.6,21.2-47,40.8c4.9,18.5,13.6,31.2,26.1,38
			c8.1,4.4,17.7,6.6,28.7,6.6c34.4,0,83-19.8,146.1-59.4C457.3,69.7,459.6,69.3,462,69.8z"/>
	</g>
</g>
</svg>
